<svg version="1.1" id="Layer_1" xmlns="http://www.w3.org/2000/svg" xmlns:xlink="http://www.w3.org/1999/xlink" x="0px" y="0px"
	 width="100%" viewBox="0 0 60 60" enable-background="new 0 0 60 60" xml:space="preserve">
<path fill="#000000" opacity="1.000000" stroke="none" 
	d="
M36.000038,61.000000 
	C24.000019,61.000000 12.500019,61.000000 1.000014,61.000000 
	C1.000010,41.000008 1.000010,21.000013 1.000005,1.000014 
	C20.999994,1.000010 40.999989,1.000010 60.999985,1.000005 
	C60.999992,20.999994 60.999992,40.999989 60.999996,60.999992 
	C52.833351,61.000000 44.666702,61.000000 36.000038,61.000000 
M35.687408,54.158997 
	C40.287491,54.992451 44.887569,55.825909 49.487652,56.659363 
	C49.683529,56.076622 49.879402,55.493885 50.075279,54.911144 
	C45.211697,49.061993 40.348114,43.212841 35.445122,37.316288 
	C36.728424,36.657677 37.883949,36.031796 39.066944,35.463047 
	C44.971104,32.624504 47.347557,27.164362 47.535282,21.383902 
	C47.752136,14.706558 42.831211,8.486609 36.526081,7.418237 
	C28.973141,6.138431 21.197231,6.174496 13.425160,5.634247 
	C13.425160,23.031578 13.425160,39.401039 13.425160,55.646858 
	C16.776213,55.646858 19.698997,55.646858 23.225983,55.646858 
	C23.225983,50.286236 23.225983,45.265652 23.225983,40.245064 
	C23.628334,40.098122 24.030684,39.951180 24.433035,39.804237 
	C27.994331,44.415276 31.555628,49.026310 35.687408,54.158997 
z"/>
<path fill="#44BF00" opacity="1.000000" stroke="none" 
	d="
M35.402168,53.898170 
	C31.555628,49.026310 27.994331,44.415276 24.433035,39.804237 
	C24.030684,39.951180 23.628334,40.098122 23.225983,40.245064 
	C23.225983,45.265652 23.225983,50.286236 23.225983,55.646858 
	C19.698997,55.646858 16.776213,55.646858 13.425160,55.646858 
	C13.425160,39.401039 13.425160,23.031578 13.425160,5.634247 
	C21.197231,6.174496 28.973141,6.138431 36.526081,7.418237 
	C42.831211,8.486609 47.752136,14.706558 47.535282,21.383902 
	C47.347557,27.164362 44.971104,32.624504 39.066944,35.463047 
	C37.883949,36.031796 36.728424,36.657677 35.445122,37.316288 
	C40.348114,43.212841 45.211697,49.061993 50.075279,54.911144 
	C49.879402,55.493885 49.683529,56.076622 49.487652,56.659363 
	C44.887569,55.825909 40.287491,54.992451 35.402168,53.898170 
M27.126308,29.895515 
	C28.061352,29.602610 28.985739,29.102060 29.933319,29.053432 
	C33.656620,28.862356 35.989635,27.072155 35.919781,23.290863 
	C35.843296,19.150686 33.279369,17.113190 29.209919,16.983650 
	C27.281923,16.922279 25.350355,16.973114 23.020302,16.973114 
	C23.020302,20.946844 22.785639,24.269129 23.169020,27.518496 
	C23.278347,28.445110 25.182171,29.160000 27.126308,29.895515 
z"/>
<path fill="#000000" opacity="1.000000" stroke="none" 
	d="
M26.694706,29.933748 
	C25.182171,29.160000 23.278347,28.445110 23.169020,27.518496 
	C22.785639,24.269129 23.020302,20.946844 23.020302,16.973114 
	C25.350355,16.973114 27.281923,16.922279 29.209919,16.983650 
	C33.279369,17.113190 35.843296,19.150686 35.919781,23.290863 
	C35.989635,27.072155 33.656620,28.862356 29.933319,29.053432 
	C28.985739,29.102060 28.061352,29.602610 26.694706,29.933748 
z"/>
</svg>